SplineFontDB: 3.2
FontName: Pixel-Maz
FullName: Pixel Maz Regular
FamilyName: Pixel Maz
Weight: Book
Copyright: Copyright allthatmaz 2008
Version: 1.0
ItalicAngle: 0
UnderlinePosition: 77
UnderlineWidth: 51
Ascent: 819
Descent: 205
InvalidEm: 0
sfntRevision: 0x00010000
LayerCount: 2
Layer: 0 1 "Back" 1
Layer: 1 1 "Fore" 0
XUID: [1021 316 2131805191 14677778]
StyleMap: 0x0040
FSType: 4
OS2Version: 4
OS2_WeightWidthSlopeOnly: 0
OS2_UseTypoMetrics: 1
CreationTime: 1223643061
ModificationTime: 1697224147
PfmFamily: 81
TTFWeight: 400
TTFWidth: 5
LineGap: 0
VLineGap: 0
Panose: 0 0 4 0 0 0 0 0 0 0
OS2TypoAscent: 819
OS2TypoAOffset: 0
OS2TypoDescent: -205
OS2TypoDOffset: 0
OS2TypoLinegap: 0
OS2WinAscent: 819
OS2WinAOffset: 0
OS2WinDescent: 205
OS2WinDOffset: 0
HheadAscent: 819
HheadAOffset: 0
HheadDescent: -205
HheadDOffset: 0
OS2SubXSize: 512
OS2SubYSize: 512
OS2SubXOff: 0
OS2SubYOff: -96
OS2SupXSize: 512
OS2SupYSize: 512
OS2SupXOff: 0
OS2SupYOff: 512
OS2StrikeYSize: 51
OS2StrikeYPos: 204
OS2CapHeight: 320
OS2XHeight: 256
OS2Vendor: 'FSTR'
OS2CodePages: 00000001.00000000
OS2UnicodeRanges: 80000003.00000000.00000000.00000000
DEI: 91125
TtTable: prep
PUSHW_1
 10
CALL
SVTCA[x-axis]
PUSHW_3
 2
 12
 12
CALL
SVTCA[x-axis]
PUSHW_8
 13
 40
 32
 25
 18
 11
 0
 18
CALL
SVTCA[y-axis]
PUSHW_8
 12
 40
 32
 25
 18
 11
 0
 18
CALL
SVTCA[y-axis]
PUSHW_3
 14
 4
 17
CALL
PUSHW_1
 11
DUP
RCVT
RDTG
ROUND[Black]
RTG
WCVTP
PUSHW_1
 0
CALL
SVTCA[y-axis]
PUSHW_3
 1
 1
 2
CALL
SVTCA[x-axis]
PUSHW_3
 2
 1
 2
CALL
SVTCA[x-axis]
PUSHW_8
 2
 40
 32
 25
 18
 11
 0
 8
CALL
SVTCA[y-axis]
PUSHW_8
 1
 40
 32
 25
 18
 11
 0
 8
CALL
SVTCA[y-axis]
PUSHW_3
 3
 4
 7
CALL
PUSHW_1
 0
DUP
RCVT
RDTG
ROUND[Black]
RTG
WCVTP
EndTTInstrs
TtTable: fpgm
PUSHW_1
 0
FDEF
MPPEM
PUSHW_1
 9
LT
IF
PUSHB_2
 1
 1
INSTCTRL
EIF
PUSHW_1
 511
SCANCTRL
PUSHW_1
 68
SCVTCI
PUSHW_2
 9
 3
SDS
SDB
ENDF
PUSHW_1
 1
FDEF
DUP
DUP
RCVT
ROUND[Black]
WCVTP
PUSHB_1
 1
ADD
ENDF
PUSHW_1
 2
FDEF
PUSHW_1
 1
LOOPCALL
POP
ENDF
PUSHW_1
 3
FDEF
DUP

StartChar: .notdef
Encoding: 65536 -1 0
Width: 1291
GlyphClass: 1
Flags: W
LayerCount: 2
Fore
SplineSet
0 0 m 1,0,-1
 0 1151 l 1,1,-1
 1151 1151 l 1,2,-1
 1151 0 l 1,3,-1
 0 0 l 1,0,-1
757 802 m 1,4,-1
 757 984 l 1,5,-1
 573 984 l 2,6,7
 498 984 498 984 444 934 c 0,8,9
 391 881 391 881 390 802 c 1,10,-1
 757 802 l 1,4,-1
576 589 m 1,11,-1
 576 772 l 1,12,-1
 390 772 l 1,13,-1
 390 589 l 1,14,-1
 576 589 l 1,11,-1
757 374 m 1,15,-1
 757 560 l 1,16,-1
 390 560 l 1,17,-1
 390 374 l 1,18,-1
 757 374 l 1,15,-1
576 163 m 1,19,-1
 576 346 l 1,20,-1
 390 346 l 1,21,-1
 390 163 l 1,22,-1
 576 163 l 1,19,-1
EndSplineSet
EndChar

StartChar: uni001E
Encoding: 30 30 3
Width: 720
GlyphClass: 2
Flags: W
LayerCount: 2
Fore
SplineSet
0 432 m 1,0,-1
 72 504 l 1,1,-1
 360 504 l 1,2,-1
 432 432 l 1,3,-1
 432 144 l 1,4,-1
 360 72 l 1,5,-1
 72 72 l 1,6,-1
 0 144 l 1,7,-1
 0 432 l 1,0,-1
EndSplineSet
EndChar

StartChar: uni001F
Encoding: 31 31 4
Width: 572
GlyphClass: 2
Flags: W
LayerCount: 2
Fore
SplineSet
121 343 m 1,0,-1
 105 325 l 1,1,-1
 34 325 l 1,2,-1
 18 343 l 1,3,-1
 0 360 l 1,4,-1
 0 429 l 1,5,-1
 34 464 l 1,6,-1
 105 464 l 1,7,-1
 139 429 l 1,8,-1
 139 360 l 1,9,-1
 121 343 l 1,0,-1
EndSplineSet
EndChar

StartChar: exclam
Encoding: 33 33 6
Width: 285
GlyphClass: 2
Flags: W
LayerCount: 2
Fore
SplineSet
0 287 m 1,0,-1
 0 863 l 1,1,-1
 144 863 l 1,2,-1
 144 287 l 1,3,-1
 0 287 l 1,0,-1
0 0 m 1,4,-1
 0 144 l 1,5,-1
 144 144 l 1,6,-1
 144 0 l 1,7,-1
 0 0 l 1,4,-1
EndSplineSet
EndChar

StartChar: quotedbl
Encoding: 34 34 7
Width: 572
GlyphClass: 2
Flags: W
LayerCount: 2
Fore
SplineSet
0 576 m 1,0,-1
 0 863 l 1,1,-1
 144 863 l 1,2,-1
 144 576 l 1,3,-1
 0 576 l 1,0,-1
287 576 m 1,4,-1
 287 863 l 1,5,-1
 432 863 l 1,6,-1
 432 576 l 1,7,-1
 287 576 l 1,4,-1
EndSplineSet
EndChar

StartChar: numbersign
Encoding: 35 35 8
Width: 860
GlyphClass: 2
Flags: W
LayerCount: 2
Fore
SplineSet
144 0 m 1,0,-1
 144 144 l 1,1,-1
 0 144 l 1,2,-1
 0 287 l 1,3,-1
 144 287 l 1,4,-1
 144 432 l 1,5,-1
 0 432 l 1,6,-1
 0 576 l 1,7,-1
 144 576 l 1,8,-1
 144 719 l 1,9,-1
 287 719 l 1,10,-1
 287 576 l 1,11,-1
 432 576 l 1,12,-1
 432 719 l 1,13,-1
 576 719 l 1,14,-1
 576 576 l 1,15,-1
 719 576 l 1,16,-1
 719 432 l 1,17,-1
 576 432 l 1,18,-1
 576 287 l 1,19,-1
 719 287 l 1,20,-1
 719 144 l 1,21,-1
 576 144 l 1,22,-1
 576 0 l 1,23,-1
 432 0 l 1,24,-1
 432 144 l 1,25,-1
 287 144 l 1,26,-1
 287 0 l 1,27,-1
 144 0 l 1,0,-1
432 287 m 1,28,-1
 432 432 l 1,29,-1
 287 432 l 1,30,-1
 287 287 l 1,31,-1
 432 287 l 1,28,-1
EndSplineSet
EndChar

StartChar: dollar
Encoding: 36 36 9
Width: 860
GlyphClass: 2
Flags: W
LayerCount: 2
Fore
SplineSet
576 287 m 1,0,-1
 576 144 l 1,1,-1
 432 144 l 1,2,-1
 432 0 l 1,3,-1
 287 0 l 1,4,-1
 287 144 l 1,5,-1
 0 144 l 1,6,-1
 0 287 l 1,7,-1
 287 287 l 1,8,-1
 287 432 l 1,9,-1
 144 432 l 1,10,-1
 144 576 l 1,11,-1
 0 576 l 1,12,-1
 0 719 l 1,13,-1
 144 719 l 1,14,-1
 144 576 l 1,15,-1
 287 576 l 1,16,-1
 287 719 l 1,17,-1
 144 719 l 1,18,-1
 144 863 l 1,19,-1
 287 863 l 1,20,-1
 287 1006 l 1,21,-1
 432 1006 l 1,22,-1
 432 863 l 1,23,-1
 719 863 l 1,24,-1
 719 719 l 1,25,-1
 432 719 l 1,26,-1
 432 576 l 1,27,-1
 576 576 l 1,28,-1
 576 432 l 1,29,-1
 432 432 l 1,30,-1
 432 287 l 1,31,-1
 576 287 l 1,0,-1
576 287 m 1,32,-1
 576 432 l 1,33,-1
 719 432 l 1,34,-1
 719 287 l 1,35,-1
 576 287 l 1,32,-1
EndSplineSet
EndChar

StartChar: percent
Encoding: 37 37 10
Width: 860
GlyphClass: 2
Flags: W
LayerCount: 2
Fore
SplineSet
144 576 m 1,0,-1
 144 719 l 1,1,-1
 287 719 l 1,2,-1
 287 576 l 1,3,-1
 144 576 l 1,0,-1
576 576 m 1,4,-1
 576 719 l 1,5,-1
 719 719 l 1,6,-1
 719 576 l 1,7,-1
 576 576 l 1,4,-1
432 432 m 1,8,-1
 432 576 l 1,9,-1
 576 576 l 1,10,-1
 576 432 l 1,11,-1
 432 432 l 1,8,-1
287 287 m 1,12,-1
 287 432 l 1,13,-1
 432 432 l 1,14,-1
 432 287 l 1,15,-1
 287 287 l 1,12,-1
144 144 m 1,16,-1
 144 287 l 1,17,-1
 287 287 l 1,18,-1
 287 144 l 1,19,-1
 144 144 l 1,16,-1
0 0 m 1,20,-1
 0 144 l 1,21,-1
 144 144 l 1,22,-1
 144 0 l 1,23,-1
 0 0 l 1,20,-1
432 0 m 1,24,-1
 432 144 l 1,25,-1
 576 144 l 1,26,-1
 576 0 l 1,27,-1
 432 0 l 1,24,-1
EndSplineSet
EndChar

StartChar: ampersand
Encoding: 38 38 11
Width: 1004
GlyphClass: 2
Flags: W
LayerCount: 2
Fore
SplineSet
144 719 m 1,0,-1
 144 863 l 1,1,-1
 432 863 l 1,2,-1
 432 719 l 1,3,-1
 144 719 l 1,0,-1
0 576 m 1,4,-1
 0 719 l 1,5,-1
 144 719 l 1,6,-1
 144 576 l 1,7,-1
 0 576 l 1,4,-1
432 576 m 1,8,-1
 432 719 l 1,9,-1
 576 719 l 1,10,-1
 576 576 l 1,11,-1
 432 576 l 1,8,-1
144 432 m 1,12,-1
 144 576 l 1,13,-1
 432 576 l 1,14,-1
 432 432 l 1,15,-1
 144 432 l 1,12,-1
719 432 m 1,16,-1
 719 576 l 1,17,-1
 863 576 l 1,18,-1
 863 432 l 1,19,-1
 719 432 l 1,16,-1
0 144 m 1,20,-1
 0 432 l 1,21,-1
 144 432 l 1,22,-1
 144 144 l 1,23,-1
 0 144 l 1,20,-1
432 144 m 1,24,-1
 432 432 l 1,25,-1
 719 432 l 1,26,-1
 719 287 l 1,27,-1
 576 287 l 1,28,-1
 576 144 l 1,29,-1
 432 144 l 1,24,-1
144 0 m 1,30,-1
 144 144 l 1,31,-1
 432 144 l 1,32,-1
 432 0 l 1,33,-1
 144 0 l 1,30,-1
576 0 m 1,34,-1
 576 144 l 1,35,-1
 863 144 l 1,36,-1
 863 0 l 1,37,-1
 576 0 l 1,34,-1
EndSplineSet
EndChar

StartChar: quotesingle
Encoding: 39 39 12
Width: 285
GlyphClass: 2
Flags: W
LayerCount: 2
Fore
SplineSet
0 576 m 1,0,-1
 0 863 l 1,1,-1
 144 863 l 1,2,-1
 144 576 l 1,3,-1
 0 576 l 1,0,-1
EndSplineSet
EndChar

StartChar: parenleft
Encoding: 40 40 13
Width: 428
GlyphClass: 2
Flags: W
LayerCount: 2
Fore
SplineSet
144 719 m 1,0,-1
 144 863 l 1,1,-1
 287 863 l 1,2,-1
 287 719 l 1,3,-1
 144 719 l 1,0,-1
0 144 m 1,4,-1
 0 719 l 1,5,-1
 144 719 l 1,6,-1
 144 144 l 1,7,-1
 0 144 l 1,4,-1
144 0 m 1,8,-1
 144 144 l 1,9,-1
 287 144 l 1,10,-1
 287 0 l 1,11,-1
 144 0 l 1,8,-1
EndSplineSet
EndChar

StartChar: parenright
Encoding: 41 41 14
Width: 428
GlyphClass: 2
Flags: W
LayerCount: 2
Fore
SplineSet
0 719 m 1,0,-1
 0 863 l 1,1,-1
 144 863 l 1,2,-1
 144 719 l 1,3,-1
 0 719 l 1,0,-1
144 144 m 1,4,-1
 144 719 l 1,5,-1
 287 719 l 1,6,-1
 287 144 l 1,7,-1
 144 144 l 1,4,-1
0 0 m 1,8,-1
 0 144 l 1,9,-1
 144 144 l 1,10,-1
 144 0 l 1,11,-1
 0 0 l 1,8,-1
EndSplineSet
EndChar

StartChar: asterisk
Encoding: 42 42 15
Width: 860
GlyphClass: 2
Flags: W
LayerCount: 2
Fore
SplineSet
144 576 m 1,0,-1
 144 863 l 1,1,-1
 0 863 l 1,2,-1
 0 1006 l 1,3,-1
 287 1006 l 1,4,-1
 287 1151 l 1,5,-1
 432 1151 l 1,6,-1
 432 1006 l 1,7,-1
 719 1006 l 1,8,-1
 719 863 l 1,9,-1
 576 863 l 1,10,-1
 576 576 l 1,11,-1
 432 576 l 1,12,-1
 432 719 l 1,13,-1
 287 719 l 1,14,-1
 287 576 l 1,15,-1
 144 576 l 1,0,-1
EndSplineSet
EndChar

StartChar: plus
Encoding: 43 43 16
Width: 860
GlyphClass: 2
Flags: W
LayerCount: 2
Fore
SplineSet
287 0 m 1,0,-1
 287 287 l 1,1,-1
 0 287 l 1,2,-1
 0 432 l 1,3,-1
 287 432 l 1,4,-1
 287 719 l 1,5,-1
 432 719 l 1,6,-1
 432 432 l 1,7,-1
 719 432 l 1,8,-1
 719 287 l 1,9,-1
 432 287 l 1,10,-1
 432 0 l 1,11,-1
 287 0 l 1,0,-1
EndSplineSet
EndChar

StartChar: comma
Encoding: 44 44 17
Width: 285
GlyphClass: 2
Flags: W
LayerCount: 2
Fore
SplineSet
-144 -144 m 1,0,-1
 0 0 l 1,1,-1
 0 144 l 1,2,-1
 144 144 l 1,3,-1
 144 0 l 1,4,-1
 0 -144 l 1,5,-1
 -144 -144 l 1,0,-1
EndSplineSet
EndChar

StartChar: hyphen
Encoding: 45 45 18
Width: 717
GlyphClass: 2
Flags: W
LayerCount: 2
Fore
SplineSet
0 287 m 1,0,-1
 0 432 l 1,1,-1
 576 432 l 1,2,-1
 576 287 l 1,3,-1
 0 287 l 1,0,-1
EndSplineSet
EndChar

StartChar: period
Encoding: 46 46 19
Width: 285
GlyphClass: 2
Flags: W
LayerCount: 2
Fore
SplineSet
0 0 m 1,0,-1
 0 144 l 1,1,-1
 144 144 l 1,2,-1
 144 0 l 1,3,-1
 0 0 l 1,0,-1
EndSplineSet
EndChar

StartChar: slash
Encoding: 47 47 20
Width: 717
GlyphClass: 2
Flags: W
LayerCount: 2
Fore
SplineSet
432 719 m 1,0,-1
 432 863 l 1,1,-1
 576 863 l 1,2,-1
 576 719 l 1,3,-1
 432 719 l 1,0,-1
287 432 m 1,4,-1
 287 719 l 1,5,-1
 432 719 l 1,6,-1
 432 432 l 1,7,-1
 287 432 l 1,4,-1
144 144 m 1,8,-1
 144 432 l 1,9,-1
 287 432 l 1,10,-1
 287 144 l 1,11,-1
 144 144 l 1,8,-1
0 0 m 1,12,-1
 0 144 l 1,13,-1
 144 144 l 1,14,-1
 144 0 l 1,15,-1
 0 0 l 1,12,-1
EndSplineSet
EndChar

StartChar: zero
Encoding: 48 48 21
Width: 717
GlyphClass: 2
Flags: W
LayerCount: 2
Fore
SplineSet
144 576 m 1,0,-1
 144 719 l 1,1,-1
 432 719 l 1,2,-1
 432 576 l 1,3,-1
 144 576 l 1,0,-1
0 144 m 1,4,-1
 0 576 l 1,5,-1
 144 576 l 1,6,-1
 144 144 l 1,7,-1
 0 144 l 1,4,-1
432 144 m 1,8,-1
 432 576 l 1,9,-1
 576 576 l 1,10,-1
 576 144 l 1,11,-1
 432 144 l 1,8,-1
144 0 m 1,12,-1
 144 144 l 1,13,-1
 432 144 l 1,14,-1
 432 0 l 1,15,-1
 144 0 l 1,12,-1
EndSplineSet
EndChar

StartChar: one
Encoding: 49 49 22
Width: 428
GlyphClass: 2
Flags: W
LayerCount: 2
Fore
SplineSet
144 0 m 1,0,-1
 144 576 l 1,1,-1
 0 576 l 1,2,-1
 0 719 l 1,3,-1
 287 719 l 1,4,-1
 287 0 l 1,5,-1
 144 0 l 1,0,-1
EndSplineSet
EndChar

StartChar: two
Encoding: 50 50 23
Width: 717
GlyphClass: 2
Flags: W
LayerCount: 2
Fore
SplineSet
144 576 m 1,0,-1
 144 719 l 1,1,-1
 432 719 l 1,2,-1
 432 576 l 1,3,-1
 144 576 l 1,0,-1
0 432 m 1,4,-1
 0 576 l 1,5,-1
 144 576 l 1,6,-1
 144 432 l 1,7,-1
 0 432 l 1,4,-1
432 432 m 1,8,-1
 432 576 l 1,9,-1
 576 576 l 1,10,-1
 576 432 l 1,11,-1
 432 432 l 1,8,-1
287 287 m 1,12,-1
 287 432 l 1,13,-1
 432 432 l 1,14,-1
 432 287 l 1,15,-1
 287 287 l 1,12,-1
0 0 m 1,16,-1
 0 144 l 1,17,-1
 144 144 l 1,18,-1
 144 287 l 1,19,-1
 287 287 l 1,20,-1
 287 144 l 1,21,-1
 576 144 l 1,22,-1
 576 0 l 1,23,-1
 0 0 l 1,16,-1
EndSplineSet
EndChar

StartChar: three
Encoding: 51 51 24
Width: 572
GlyphClass: 2
Flags: W
LayerCount: 2
Fore
SplineSet
0 576 m 1,0,-1
 0 719 l 1,1,-1
 287 719 l 1,2,-1
 287 576 l 1,3,-1
 0 576 l 1,0,-1
287 432 m 1,4,-1
 287 576 l 1,5,-1
 432 576 l 1,6,-1
 432 432 l 1,7,-1
 287 432 l 1,4,-1
144 287 m 1,8,-1
 144 432 l 1,9,-1
 287 432 l 1,10,-1
 287 287 l 1,11,-1
 144 287 l 1,8,-1
287 144 m 1,12,-1
 287 287 l 1,13,-1
 432 287 l 1,14,-1
 432 144 l 1,15,-1
 287 144 l 1,12,-1
0 0 m 1,16,-1
 0 144 l 1,17,-1
 287 144 l 1,18,-1
 287 0 l 1,19,-1
 0 0 l 1,16,-1
EndSplineSet
EndChar

StartChar: four
Encoding: 52 52 25
Width: 717
GlyphClass: 2
Flags: W
LayerCount: 2
Fore
SplineSet
287 0 m 1,0,-1
 287 144 l 1,1,-1
 0 144 l 1,2,-1
 0 719 l 1,3,-1
 144 719 l 1,4,-1
 144 287 l 1,5,-1
 287 287 l 1,6,-1
 287 432 l 1,7,-1
 432 432 l 1,8,-1
 432 287 l 1,9,-1
 576 287 l 1,10,-1
 576 144 l 1,11,-1
 432 144 l 1,12,-1
 432 0 l 1,13,-1
 287 0 l 1,0,-1
EndSplineSet
EndChar

StartChar: five
Encoding: 53 53 26
Width: 717
GlyphClass: 2
Flags: W
LayerCount: 2
Fore
SplineSet
0 432 m 1,0,-1
 0 719 l 1,1,-1
 432 719 l 1,2,-1
 432 576 l 1,3,-1
 144 576 l 1,4,-1
 144 432 l 1,5,-1
 0 432 l 1,0,-1
144 287 m 1,6,-1
 144 432 l 1,7,-1
 432 432 l 1,8,-1
 432 287 l 1,9,-1
 144 287 l 1,6,-1
432 144 m 1,10,-1
 432 287 l 1,11,-1
 576 287 l 1,12,-1
 576 144 l 1,13,-1
 432 144 l 1,10,-1
0 0 m 1,14,-1
 0 144 l 1,15,-1
 432 144 l 1,16,-1
 432 0 l 1,17,-1
 0 0 l 1,14,-1
EndSplineSet
EndChar

StartChar: six
Encoding: 54 54 27
Width: 717
GlyphClass: 2
Flags: W
LayerCount: 2
Fore
SplineSet
144 576 m 1,0,-1
 144 719 l 1,1,-1
 432 719 l 1,2,-1
 432 576 l 1,3,-1
 144 576 l 1,0,-1
0 144 m 1,4,-1
 0 576 l 1,5,-1
 144 576 l 1,6,-1
 144 432 l 1,7,-1
 432 432 l 1,8,-1
 432 287 l 1,9,-1
 144 287 l 1,10,-1
 144 144 l 1,11,-1
 0 144 l 1,4,-1
432 144 m 1,12,-1
 432 287 l 1,13,-1
 576 287 l 1,14,-1
 576 144 l 1,15,-1
 432 144 l 1,12,-1
144 0 m 1,16,-1
 144 144 l 1,17,-1
 432 144 l 1,18,-1
 432 0 l 1,19,-1
 144 0 l 1,16,-1
EndSplineSet
EndChar

StartChar: seven
Encoding: 55 55 28
Width: 572
GlyphClass: 2
Flags: W
LayerCount: 2
Fore
SplineSet
287 432 m 1,0,-1
 287 576 l 1,1,-1
 0 576 l 1,2,-1
 0 719 l 1,3,-1
 432 719 l 1,4,-1
 432 432 l 1,5,-1
 287 432 l 1,0,-1
144 144 m 1,6,-1
 144 432 l 1,7,-1
 287 432 l 1,8,-1
 287 144 l 1,9,-1
 144 144 l 1,6,-1
0 0 m 1,10,-1
 0 144 l 1,11,-1
 144 144 l 1,12,-1
 144 0 l 1,13,-1
 0 0 l 1,10,-1
EndSplineSet
EndChar

StartChar: eight
Encoding: 56 56 29
Width: 717
GlyphClass: 2
Flags: W
LayerCount: 2
Fore
SplineSet
144 576 m 1,0,-1
 144 719 l 1,1,-1
 432 719 l 1,2,-1
 432 576 l 1,3,-1
 144 576 l 1,0,-1
0 432 m 1,4,-1
 0 576 l 1,5,-1
 144 576 l 1,6,-1
 144 432 l 1,7,-1
 0 432 l 1,4,-1
432 432 m 1,8,-1
 432 576 l 1,9,-1
 576 576 l 1,10,-1
 576 432 l 1,11,-1
 432 432 l 1,8,-1
144 287 m 1,12,-1
 144 432 l 1,13,-1
 432 432 l 1,14,-1
 432 287 l 1,15,-1
 144 287 l 1,12,-1
0 144 m 1,16,-1
 0 287 l 1,17,-1
 144 287 l 1,18,-1
 144 144 l 1,19,-1
 0 144 l 1,16,-1
432 144 m 1,20,-1
 432 287 l 1,21,-1
 576 287 l 1,22,-1
 576 144 l 1,23,-1
 432 144 l 1,20,-1
144 0 m 1,24,-1
 144 144 l 1,25,-1
 432 144 l 1,26,-1
 432 0 l 1,27,-1
 144 0 l 1,24,-1
EndSplineSet
EndChar

StartChar: nine
Encoding: 57 57 30
Width: 717
GlyphClass: 2
Flags: W
LayerCount: 2
Fore
SplineSet
144 576 m 1,0,-1
 144 719 l 1,1,-1
 432 719 l 1,2,-1
 432 576 l 1,3,-1
 144 576 l 1,0,-1
0 432 m 1,4,-1
 0 576 l 1,5,-1
 144 576 l 1,6,-1
 144 432 l 1,7,-1
 432 432 l 1,8,-1
 432 576 l 1,9,-1
 576 576 l 1,10,-1
 576 144 l 1,11,-1
 432 144 l 1,12,-1
 432 287 l 1,13,-1
 144 287 l 1,14,-1
 144 432 l 1,15,-1
 0 432 l 1,4,-1
144 0 m 1,16,-1
 144 144 l 1,17,-1
 432 144 l 1,18,-1
 432 0 l 1,19,-1
 144 0 l 1,16,-1
EndSplineSet
EndChar

StartChar: colon
Encoding: 58 58 31
Width: 285
GlyphClass: 2
Flags: W
LayerCount: 2
Fore
SplineSet
0 432 m 1,0,-1
 0 576 l 1,1,-1
 144 576 l 1,2,-1
 144 432 l 1,3,-1
 0 432 l 1,0,-1
0 144 m 1,4,-1
 0 287 l 1,5,-1
 144 287 l 1,6,-1
 144 144 l 1,7,-1
 0 144 l 1,4,-1
EndSplineSet
EndChar

StartChar: semicolon
Encoding: 59 59 32
Width: 285
GlyphClass: 2
Flags: W
LayerCount: 2
Fore
SplineSet
0 287 m 1,0,-1
 0 432 l 1,1,-1
 144 432 l 1,2,-1
 144 287 l 1,3,-1
 0 287 l 1,0,-1
0 -144 m 1,4,-1
 0 144 l 1,5,-1
 144 144 l 1,6,-1
 144 0 l 1,7,-1
 0 -144 l 1,4,-1
EndSplineSet
EndChar

StartChar: less
Encoding: 60 60 33
Width: 572
GlyphClass: 2
Flags: W
LayerCount: 2
Fore
SplineSet
287 576 m 1,0,-1
 287 719 l 1,1,-1
 432 719 l 1,2,-1
 432 576 l 1,3,-1
 287 576 l 1,0,-1
144 432 m 1,4,-1
 144 576 l 1,5,-1
 287 576 l 1,6,-1
 287 432 l 1,7,-1
 144 432 l 1,4,-1
0 287 m 1,8,-1
 0 432 l 1,9,-1
 144 432 l 1,10,-1
 144 287 l 1,11,-1
 0 287 l 1,8,-1
144 144 m 1,12,-1
 144 287 l 1,13,-1
 287 287 l 1,14,-1
 287 144 l 1,15,-1
 144 144 l 1,12,-1
287 0 m 1,16,-1
 287 144 l 1,17,-1
 432 144 l 1,18,-1
 432 0 l 1,19,-1
 287 0 l 1,16,-1
EndSplineSet
EndChar

StartChar: equal
Encoding: 61 61 34
Width: 572
GlyphClass: 2
Flags: W
LayerCount: 2
Fore
SplineSet
0 432 m 1,0,-1
 0 576 l 1,1,-1
 432 576 l 1,2,-1
 432 432 l 1,3,-1
 0 432 l 1,0,-1
0 144 m 1,4,-1
 0 287 l 1,5,-1
 432 287 l 1,6,-1
 432 144 l 1,7,-1
 0 144 l 1,4,-1
EndSplineSet
EndChar

StartChar: greater
Encoding: 62 62 35
Width: 572
GlyphClass: 2
Flags: W
LayerCount: 2
Fore
SplineSet
0 576 m 1,0,-1
 0 719 l 1,1,-1
 144 719 l 1,2,-1
 144 576 l 1,3,-1
 0 576 l 1,0,-1
144 432 m 1,4,-1
 144 576 l 1,5,-1
 287 576 l 1,6,-1
 287 432 l 1,7,-1
 144 432 l 1,4,-1
287 287 m 1,8,-1
 287 432 l 1,9,-1
 432 432 l 1,10,-1
 432 287 l 1,11,-1
 287 287 l 1,8,-1
144 144 m 1,12,-1
 144 287 l 1,13,-1
 287 287 l 1,14,-1
 287 144 l 1,15,-1
 144 144 l 1,12,-1
0 0 m 1,16,-1
 0 144 l 1,17,-1
 144 144 l 1,18,-1
 144 0 l 1,19,-1
 0 0 l 1,16,-1
EndSplineSet
EndChar

StartChar: question
Encoding: 63 63 36
Width: 717
GlyphClass: 2
Flags: W
LayerCount: 2
Fore
SplineSet
144 719 m 1,0,-1
 144 863 l 1,1,-1
 432 863 l 1,2,-1
 432 719 l 1,3,-1
 144 719 l 1,0,-1
0 576 m 1,4,-1
 0 719 l 1,5,-1
 144 719 l 1,6,-1
 144 576 l 1,7,-1
 0 576 l 1,4,-1
432 576 m 1,8,-1
 432 719 l 1,9,-1
 576 719 l 1,10,-1
 576 576 l 1,11,-1
 432 576 l 1,8,-1
287 432 m 1,12,-1
 287 576 l 1,13,-1
 432 576 l 1,14,-1
 432 432 l 1,15,-1
 287 432 l 1,12,-1
144 287 m 1,16,-1
 144 432 l 1,17,-1
 287 432 l 1,18,-1
 287 287 l 1,19,-1
 144 287 l 1,16,-1
144 0 m 1,20,-1
 144 144 l 1,21,-1
 287 144 l 1,22,-1
 287 0 l 1,23,-1
 144 0 l 1,20,-1
EndSplineSet
EndChar

StartChar: at
Encoding: 64 64 37
Width: 1148
GlyphClass: 2
Flags: W
LayerCount: 2
Fore
SplineSet
287 1006 m 1,0,-1
 287 1151 l 1,1,-1
 719 1151 l 1,2,-1
 719 1006 l 1,3,-1
 287 1006 l 1,0,-1
144 863 m 1,4,-1
 144 1006 l 1,5,-1
 287 1006 l 1,6,-1
 287 863 l 1,7,-1
 144 863 l 1,4,-1
719 863 m 1,8,-1
 719 1006 l 1,9,-1
 863 1006 l 1,10,-1
 863 863 l 1,11,-1
 719 863 l 1,8,-1
0 287 m 1,12,-1
 0 863 l 1,13,-1
 144 863 l 1,14,-1
 144 287 l 1,15,-1
 0 287 l 1,12,-1
432 719 m 1,16,-1
 432 863 l 1,17,-1
 576 863 l 1,18,-1
 576 719 l 1,19,-1
 432 719 l 1,16,-1
863 432 m 1,20,-1
 863 863 l 1,21,-1
 1006 863 l 1,22,-1
 1006 432 l 1,23,-1
 863 432 l 1,20,-1
287 432 m 1,24,-1
 287 719 l 1,25,-1
 432 719 l 1,26,-1
 432 432 l 1,27,-1
 287 432 l 1,24,-1
576 432 m 1,28,-1
 576 719 l 1,29,-1
 719 719 l 1,30,-1
 719 432 l 1,31,-1
 576 432 l 1,28,-1
432 287 m 1,32,-1
 432 432 l 1,33,-1
 576 432 l 1,34,-1
 576 287 l 1,35,-1
 432 287 l 1,32,-1
719 287 m 1,36,-1
 719 432 l 1,37,-1
 863 432 l 1,38,-1
 863 287 l 1,39,-1
 719 287 l 1,36,-1
144 144 m 1,40,-1
 144 287 l 1,41,-1
 287 287 l 1,42,-1
 287 144 l 1,43,-1
 144 144 l 1,40,-1
287 0 m 1,44,-1
 287 144 l 1,45,-1
 863 144 l 1,46,-1
 863 0 l 1,47,-1
 287 0 l 1,44,-1
EndSplineSet
EndChar

StartChar: A
Encoding: 65 65 38
Width: 717
GlyphClass: 2
Flags: W
LayerCount: 2
Fore
SplineSet
144 576 m 1,0,-1
 144 719 l 1,1,-1
 432 719 l 1,2,-1
 432 576 l 1,3,-1
 144 576 l 1,0,-1
0 0 m 1,4,-1
 0 576 l 1,5,-1
 144 576 l 1,6,-1
 144 287 l 1,7,-1
 432 287 l 1,8,-1
 432 576 l 1,9,-1
 576 576 l 1,10,-1
 576 0 l 1,11,-1
 432 0 l 1,12,-1
 432 144 l 1,13,-1
 144 144 l 1,14,-1
 144 0 l 1,15,-1
 0 0 l 1,4,-1
EndSplineSet
EndChar

StartChar: B
Encoding: 66 66 39
Width: 717
GlyphClass: 2
Flags: W
LayerCount: 2
Fore
SplineSet
432 144 m 1,0,-1
 432 0 l 1,1,-1
 0 0 l 1,2,-1
 0 719 l 1,3,-1
 432 719 l 1,4,-1
 432 576 l 1,5,-1
 144 576 l 1,6,-1
 144 432 l 1,7,-1
 432 432 l 1,8,-1
 432 287 l 1,9,-1
 144 287 l 1,10,-1
 144 144 l 1,11,-1
 432 144 l 1,0,-1
432 432 m 1,12,-1
 432 576 l 1,13,-1
 576 576 l 1,14,-1
 576 432 l 1,15,-1
 432 432 l 1,12,-1
432 144 m 1,16,-1
 432 287 l 1,17,-1
 576 287 l 1,18,-1
 576 144 l 1,19,-1
 432 144 l 1,16,-1
EndSplineSet
EndChar

StartChar: C
Encoding: 67 67 40
Width: 572
GlyphClass: 2
Flags: W
LayerCount: 2
Fore
SplineSet
144 576 m 1,0,-1
 144 719 l 1,1,-1
 432 719 l 1,2,-1
 432 576 l 1,3,-1
 144 576 l 1,0,-1
0 144 m 1,4,-1
 0 576 l 1,5,-1
 144 576 l 1,6,-1
 144 144 l 1,7,-1
 0 144 l 1,4,-1
144 0 m 1,8,-1
 144 144 l 1,9,-1
 432 144 l 1,10,-1
 432 0 l 1,11,-1
 144 0 l 1,8,-1
EndSplineSet
EndChar

StartChar: D
Encoding: 68 68 41
Width: 717
GlyphClass: 2
Flags: W
LayerCount: 2
Fore
SplineSet
432 144 m 1,0,-1
 432 0 l 1,1,-1
 0 0 l 1,2,-1
 0 719 l 1,3,-1
 432 719 l 1,4,-1
 432 576 l 1,5,-1
 144 576 l 1,6,-1
 144 144 l 1,7,-1
 432 144 l 1,0,-1
432 144 m 1,8,-1
 432 576 l 1,9,-1
 576 576 l 1,10,-1
 576 144 l 1,11,-1
 432 144 l 1,8,-1
EndSplineSet
EndChar

StartChar: E
Encoding: 69 69 42
Width: 572
GlyphClass: 2
Flags: W
LayerCount: 2
Fore
SplineSet
0 0 m 1,0,-1
 0 719 l 1,1,-1
 432 719 l 1,2,-1
 432 576 l 1,3,-1
 144 576 l 1,4,-1
 144 432 l 1,5,-1
 287 432 l 1,6,-1
 287 287 l 1,7,-1
 144 287 l 1,8,-1
 144 144 l 1,9,-1
 432 144 l 1,10,-1
 432 0 l 1,11,-1
 0 0 l 1,0,-1
EndSplineSet
EndChar

StartChar: F
Encoding: 70 70 43
Width: 572
GlyphClass: 2
Flags: W
LayerCount: 2
Fore
SplineSet
0 0 m 1,0,-1
 0 719 l 1,1,-1
 432 719 l 1,2,-1
 432 576 l 1,3,-1
 144 576 l 1,4,-1
 144 432 l 1,5,-1
 287 432 l 1,6,-1
 287 287 l 1,7,-1
 144 287 l 1,8,-1
 144 0 l 1,9,-1
 0 0 l 1,0,-1
EndSplineSet
EndChar

StartChar: G
Encoding: 71 71 44
Width: 717
GlyphClass: 2
Flags: W
LayerCount: 2
Fore
SplineSet
144 576 m 1,0,-1
 144 719 l 1,1,-1
 576 719 l 1,2,-1
 576 576 l 1,3,-1
 144 576 l 1,0,-1
144 0 m 1,4,-1
 144 144 l 1,5,-1
 0 144 l 1,6,-1
 0 576 l 1,7,-1
 144 576 l 1,8,-1
 144 144 l 1,9,-1
 432 144 l 1,10,-1
 432 287 l 1,11,-1
 287 287 l 1,12,-1
 287 432 l 1,13,-1
 576 432 l 1,14,-1
 576 0 l 1,15,-1
 144 0 l 1,4,-1
EndSplineSet
EndChar

StartChar: H
Encoding: 72 72 45
Width: 717
GlyphClass: 2
Flags: W
LayerCount: 2
Fore
SplineSet
0 0 m 1,0,-1
 0 719 l 1,1,-1
 144 719 l 1,2,-1
 144 432 l 1,3,-1
 432 432 l 1,4,-1
 432 719 l 1,5,-1
 576 719 l 1,6,-1
 576 0 l 1,7,-1
 432 0 l 1,8,-1
 432 287 l 1,9,-1
 144 287 l 1,10,-1
 144 0 l 1,11,-1
 0 0 l 1,0,-1
EndSplineSet
EndChar

StartChar: I
Encoding: 73 73 46
Width: 572
GlyphClass: 2
Flags: W
LayerCount: 2
Fore
SplineSet
0 0 m 1,0,-1
 0 144 l 1,1,-1
 144 144 l 1,2,-1
 144 576 l 1,3,-1
 0 576 l 1,4,-1
 0 719 l 1,5,-1
 432 719 l 1,6,-1
 432 576 l 1,7,-1
 287 576 l 1,8,-1
 287 144 l 1,9,-1
 432 144 l 1,10,-1
 432 0 l 1,11,-1
 0 0 l 1,0,-1
EndSplineSet
EndChar

StartChar: J
Encoding: 74 74 47
Width: 717
GlyphClass: 2
Flags: W
LayerCount: 2
Fore
SplineSet
287 144 m 1,0,-1
 287 576 l 1,1,-1
 0 576 l 1,2,-1
 0 719 l 1,3,-1
 576 719 l 1,4,-1
 576 576 l 1,5,-1
 432 576 l 1,6,-1
 432 144 l 1,7,-1
 287 144 l 1,0,-1
0 144 m 1,8,-1
 0 287 l 1,9,-1
 144 287 l 1,10,-1
 144 144 l 1,11,-1
 0 144 l 1,8,-1
144 0 m 1,12,-1
 144 144 l 1,13,-1
 287 144 l 1,14,-1
 287 0 l 1,15,-1
 144 0 l 1,12,-1
EndSplineSet
EndChar

StartChar: K
Encoding: 75 75 48
Width: 717
GlyphClass: 2
Flags: W
LayerCount: 2
Fore
SplineSet
287 432 m 1,0,-1
 287 287 l 1,1,-1
 144 287 l 1,2,-1
 144 0 l 1,3,-1
 0 0 l 1,4,-1
 0 719 l 1,5,-1
 144 719 l 1,6,-1
 144 432 l 1,7,-1
 287 432 l 1,0,-1
432 576 m 1,8,-1
 432 719 l 1,9,-1
 576 719 l 1,10,-1
 576 576 l 1,11,-1
 432 576 l 1,8,-1
287 432 m 1,12,-1
 287 576 l 1,13,-1
 432 576 l 1,14,-1
 432 432 l 1,15,-1
 287 432 l 1,12,-1
287 144 m 1,16,-1
 287 287 l 1,17,-1
 432 287 l 1,18,-1
 432 144 l 1,19,-1
 287 144 l 1,16,-1
432 0 m 1,20,-1
 432 144 l 1,21,-1
 576 144 l 1,22,-1
 576 0 l 1,23,-1
 432 0 l 1,20,-1
EndSplineSet
EndChar

StartChar: L
Encoding: 76 76 49
Width: 572
GlyphClass: 2
Flags: W
LayerCount: 2
Fore
SplineSet
0 0 m 1,0,-1
 0 719 l 1,1,-1
 144 719 l 1,2,-1
 144 144 l 1,3,-1
 432 144 l 1,4,-1
 432 0 l 1,5,-1
 0 0 l 1,0,-1
EndSplineSet
EndChar

StartChar: M
Encoding: 77 77 50
Width: 860
GlyphClass: 2
Flags: W
LayerCount: 2
Fore
SplineSet
0 0 m 1,0,-1
 0 719 l 1,1,-1
 287 719 l 1,2,-1
 287 576 l 1,3,-1
 144 576 l 1,4,-1
 144 0 l 1,5,-1
 0 0 l 1,0,-1
576 0 m 1,6,-1
 576 576 l 1,7,-1
 432 576 l 1,8,-1
 432 719 l 1,9,-1
 719 719 l 1,10,-1
 719 0 l 1,11,-1
 576 0 l 1,6,-1
287 287 m 1,12,-1
 287 576 l 1,13,-1
 432 576 l 1,14,-1
 432 287 l 1,15,-1
 287 287 l 1,12,-1
EndSplineSet
EndChar

StartChar: N
Encoding: 78 78 51
Width: 717
GlyphClass: 2
Flags: W
LayerCount: 2
Fore
SplineSet
0 0 m 1,0,-1
 0 719 l 1,1,-1
 144 719 l 1,2,-1
 144 576 l 1,3,-1
 287 576 l 1,4,-1
 287 432 l 1,5,-1
 144 432 l 1,6,-1
 144 0 l 1,7,-1
 0 0 l 1,0,-1
432 0 m 1,8,-1
 432 287 l 1,9,-1
 287 287 l 1,10,-1
 287 432 l 1,11,-1
 432 432 l 1,12,-1
 432 719 l 1,13,-1
 576 719 l 1,14,-1
 576 0 l 1,15,-1
 432 0 l 1,8,-1
EndSplineSet
EndChar

StartChar: O
Encoding: 79 79 52
Width: 717
GlyphClass: 2
Flags: W
LayerCount: 2
Fore
SplineSet
144 576 m 1,0,-1
 144 719 l 1,1,-1
 432 719 l 1,2,-1
 432 576 l 1,3,-1
 144 576 l 1,0,-1
0 144 m 1,4,-1
 0 576 l 1,5,-1
 144 576 l 1,6,-1
 144 144 l 1,7,-1
 0 144 l 1,4,-1
432 144 m 1,8,-1
 432 576 l 1,9,-1
 576 576 l 1,10,-1
 576 144 l 1,11,-1
 432 144 l 1,8,-1
144 0 m 1,12,-1
 144 144 l 1,13,-1
 432 144 l 1,14,-1
 432 0 l 1,15,-1
 144 0 l 1,12,-1
EndSplineSet
EndChar

StartChar: P
Encoding: 80 80 53
Width: 717
GlyphClass: 2
Flags: W
LayerCount: 2
Fore
SplineSet
432 287 m 1,0,-1
 432 144 l 1,1,-1
 144 144 l 1,2,-1
 144 0 l 1,3,-1
 0 0 l 1,4,-1
 0 719 l 1,5,-1
 432 719 l 1,6,-1
 432 576 l 1,7,-1
 144 576 l 1,8,-1
 144 287 l 1,9,-1
 432 287 l 1,0,-1
432 287 m 1,10,-1
 432 576 l 1,11,-1
 576 576 l 1,12,-1
 576 287 l 1,13,-1
 432 287 l 1,10,-1
EndSplineSet
EndChar

StartChar: Q
Encoding: 81 81 54
Width: 717
GlyphClass: 2
Flags: W
LayerCount: 2
Fore
SplineSet
144 576 m 1,0,-1
 144 719 l 1,1,-1
 432 719 l 1,2,-1
 432 576 l 1,3,-1
 144 576 l 1,0,-1
0 144 m 1,4,-1
 0 576 l 1,5,-1
 144 576 l 1,6,-1
 144 144 l 1,7,-1
 287 144 l 1,8,-1
 287 287 l 1,9,-1
 432 287 l 1,10,-1
 432 576 l 1,11,-1
 576 576 l 1,12,-1
 576 0 l 1,13,-1
 144 0 l 1,14,-1
 144 144 l 1,15,-1
 0 144 l 1,4,-1
EndSplineSet
EndChar

StartChar: R
Encoding: 82 82 55
Width: 717
GlyphClass: 2
Flags: W
LayerCount: 2
Fore
SplineSet
432 287 m 1,0,-1
 432 144 l 1,1,-1
 144 144 l 1,2,-1
 144 0 l 1,3,-1
 0 0 l 1,4,-1
 0 719 l 1,5,-1
 432 719 l 1,6,-1
 432 576 l 1,7,-1
 144 576 l 1,8,-1
 144 287 l 1,9,-1
 432 287 l 1,0,-1
432 287 m 1,10,-1
 432 576 l 1,11,-1
 576 576 l 1,12,-1
 576 287 l 1,13,-1
 432 287 l 1,10,-1
432 0 m 1,14,-1
 432 144 l 1,15,-1
 576 144 l 1,16,-1
 576 0 l 1,17,-1
 432 0 l 1,14,-1
EndSplineSet
EndChar

StartChar: S
Encoding: 83 83 56
Width: 717
GlyphClass: 2
Flags: W
LayerCount: 2
Fore
SplineSet
144 576 m 1,0,-1
 144 719 l 1,1,-1
 576 719 l 1,2,-1
 576 576 l 1,3,-1
 144 576 l 1,0,-1
0 432 m 1,4,-1
 0 576 l 1,5,-1
 144 576 l 1,6,-1
 144 432 l 1,7,-1
 0 432 l 1,4,-1
144 287 m 1,8,-1
 144 432 l 1,9,-1
 432 432 l 1,10,-1
 432 287 l 1,11,-1
 144 287 l 1,8,-1
432 144 m 1,12,-1
 432 287 l 1,13,-1
 576 287 l 1,14,-1
 576 144 l 1,15,-1
 432 144 l 1,12,-1
0 0 m 1,16,-1
 0 144 l 1,17,-1
 432 144 l 1,18,-1
 432 0 l 1,19,-1
 0 0 l 1,16,-1
EndSplineSet
EndChar

StartChar: T
Encoding: 84 84 57
Width: 572
GlyphClass: 2
Flags: W
LayerCount: 2
Fore
SplineSet
144 0 m 1,0,-1
 144 576 l 1,1,-1
 0 576 l 1,2,-1
 0 719 l 1,3,-1
 432 719 l 1,4,-1
 432 576 l 1,5,-1
 287 576 l 1,6,-1
 287 0 l 1,7,-1
 144 0 l 1,0,-1
EndSplineSet
EndChar

StartChar: U
Encoding: 85 85 58
Width: 717
GlyphClass: 2
Flags: W
LayerCount: 2
Fore
SplineSet
0 144 m 1,0,-1
 0 719 l 1,1,-1
 144 719 l 1,2,-1
 144 144 l 1,3,-1
 0 144 l 1,0,-1
432 144 m 1,4,-1
 432 719 l 1,5,-1
 576 719 l 1,6,-1
 576 144 l 1,7,-1
 432 144 l 1,4,-1
144 0 m 1,8,-1
 144 144 l 1,9,-1
 432 144 l 1,10,-1
 432 0 l 1,11,-1
 144 0 l 1,8,-1
EndSplineSet
EndChar

StartChar: V
Encoding: 86 86 59
Width: 860
GlyphClass: 2
Flags: W
LayerCount: 2
Fore
SplineSet
0 432 m 1,0,-1
 0 719 l 1,1,-1
 144 719 l 1,2,-1
 144 432 l 1,3,-1
 0 432 l 1,0,-1
576 432 m 1,4,-1
 576 719 l 1,5,-1
 719 719 l 1,6,-1
 719 432 l 1,7,-1
 576 432 l 1,4,-1
144 144 m 1,8,-1
 144 432 l 1,9,-1
 287 432 l 1,10,-1
 287 144 l 1,11,-1
 144 144 l 1,8,-1
432 144 m 1,12,-1
 432 432 l 1,13,-1
 576 432 l 1,14,-1
 576 144 l 1,15,-1
 432 144 l 1,12,-1
287 0 m 1,16,-1
 287 144 l 1,17,-1
 432 144 l 1,18,-1
 432 0 l 1,19,-1
 287 0 l 1,16,-1
EndSplineSet
EndChar

StartChar: W
Encoding: 87 87 60
Width: 860
GlyphClass: 2
Flags: W
LayerCount: 2
Fore
SplineSet
144 0 m 1,0,-1
 144 144 l 1,1,-1
 0 144 l 1,2,-1
 0 719 l 1,3,-1
 144 719 l 1,4,-1
 144 144 l 1,5,-1
 287 144 l 1,6,-1
 287 432 l 1,7,-1
 432 432 l 1,8,-1
 432 144 l 1,9,-1
 576 144 l 1,10,-1
 576 0 l 1,11,-1
 144 0 l 1,0,-1
576 144 m 1,12,-1
 576 719 l 1,13,-1
 719 719 l 1,14,-1
 719 144 l 1,15,-1
 576 144 l 1,12,-1
EndSplineSet
EndChar

StartChar: X
Encoding: 88 88 61
Width: 860
GlyphClass: 2
Flags: W
LayerCount: 2
Fore
SplineSet
0 576 m 1,0,-1
 0 719 l 1,1,-1
 144 719 l 1,2,-1
 144 576 l 1,3,-1
 0 576 l 1,0,-1
576 576 m 1,4,-1
 576 719 l 1,5,-1
 719 719 l 1,6,-1
 719 576 l 1,7,-1
 576 576 l 1,4,-1
144 432 m 1,8,-1
 144 576 l 1,9,-1
 287 576 l 1,10,-1
 287 432 l 1,11,-1
 144 432 l 1,8,-1
432 432 m 1,12,-1
 432 576 l 1,13,-1
 576 576 l 1,14,-1
 576 432 l 1,15,-1
 432 432 l 1,12,-1
287 287 m 1,16,-1
 287 432 l 1,17,-1
 432 432 l 1,18,-1
 432 287 l 1,19,-1
 287 287 l 1,16,-1
144 144 m 1,20,-1
 144 287 l 1,21,-1
 287 287 l 1,22,-1
 287 144 l 1,23,-1
 144 144 l 1,20,-1
432 144 m 1,24,-1
 432 287 l 1,25,-1
 576 287 l 1,26,-1
 576 144 l 1,27,-1
 432 144 l 1,24,-1
0 0 m 1,28,-1
 0 144 l 1,29,-1
 144 144 l 1,30,-1
 144 0 l 1,31,-1
 0 0 l 1,28,-1
576 0 m 1,32,-1
 576 144 l 1,33,-1
 719 144 l 1,34,-1
 719 0 l 1,35,-1
 576 0 l 1,32,-1
EndSplineSet
EndChar

StartChar: Y
Encoding: 89 89 62
Width: 860
GlyphClass: 2
Flags: W
LayerCount: 2
Fore
SplineSet
0 576 m 1,0,-1
 0 719 l 1,1,-1
 144 719 l 1,2,-1
 144 576 l 1,3,-1
 0 576 l 1,0,-1
576 576 m 1,4,-1
 576 719 l 1,5,-1
 719 719 l 1,6,-1
 719 576 l 1,7,-1
 576 576 l 1,4,-1
144 431 m 1,8,-1
 144 576 l 1,9,-1
 287 576 l 1,10,-1
 287 431 l 1,11,-1
 144 431 l 1,8,-1
432 431 m 1,12,-1
 432 576 l 1,13,-1
 576 576 l 1,14,-1
 576 431 l 1,15,-1
 432 431 l 1,12,-1
287 0 m 1,16,-1
 287 431 l 1,17,-1
 432 431 l 1,18,-1
 432 0 l 1,19,-1
 287 0 l 1,16,-1
EndSplineSet
EndChar

StartChar: Z
Encoding: 90 90 63
Width: 717
GlyphClass: 2
Flags: W
LayerCount: 2
Fore
SplineSet
432 432 m 1,0,-1
 432 576 l 1,1,-1
 0 576 l 1,2,-1
 0 719 l 1,3,-1
 576 719 l 1,4,-1
 576 432 l 1,5,-1
 432 432 l 1,0,-1
287 287 m 1,6,-1
 287 432 l 1,7,-1
 432 432 l 1,8,-1
 432 287 l 1,9,-1
 287 287 l 1,6,-1
0 0 m 1,10,-1
 0 144 l 1,11,-1
 144 144 l 1,12,-1
 144 287 l 1,13,-1
 287 287 l 1,14,-1
 287 144 l 1,15,-1
 576 144 l 1,16,-1
 576 0 l 1,17,-1
 0 0 l 1,10,-1
EndSplineSet
EndChar

StartChar: bracketleft
Encoding: 91 91 64
Width: 428
GlyphClass: 2
Flags: W
LayerCount: 2
Fore
SplineSet
0 0 m 1,0,-1
 0 863 l 1,1,-1
 287 863 l 1,2,-1
 287 719 l 1,3,-1
 144 719 l 1,4,-1
 144 144 l 1,5,-1
 287 144 l 1,6,-1
 287 0 l 1,7,-1
 0 0 l 1,0,-1
EndSplineSet
EndChar

StartChar: backslash
Encoding: 92 92 65
Width: 717
GlyphClass: 2
Flags: W
LayerCount: 2
Fore
SplineSet
0 719 m 1,0,-1
 0 863 l 1,1,-1
 144 863 l 1,2,-1
 144 719 l 1,3,-1
 0 719 l 1,0,-1
144 432 m 1,4,-1
 144 719 l 1,5,-1
 287 719 l 1,6,-1
 287 432 l 1,7,-1
 144 432 l 1,4,-1
287 144 m 1,8,-1
 287 432 l 1,9,-1
 432 432 l 1,10,-1
 432 144 l 1,11,-1
 287 144 l 1,8,-1
432 0 m 1,12,-1
 432 144 l 1,13,-1
 576 144 l 1,14,-1
 576 0 l 1,15,-1
 432 0 l 1,12,-1
EndSplineSet
EndChar

StartChar: bracketright
Encoding: 93 93 66
Width: 428
GlyphClass: 2
Flags: W
LayerCount: 2
Fore
SplineSet
0 0 m 1,0,-1
 0 144 l 1,1,-1
 144 144 l 1,2,-1
 144 719 l 1,3,-1
 0 719 l 1,4,-1
 0 863 l 1,5,-1
 287 863 l 1,6,-1
 287 0 l 1,7,-1
 0 0 l 1,0,-1
EndSplineSet
EndChar

StartChar: asciicircum
Encoding: 94 94 67
Width: 572
GlyphClass: 2
Flags: W
LayerCount: 2
Fore
SplineSet
144 576 m 1,0,-1
 144 719 l 1,1,-1
 287 719 l 1,2,-1
 287 576 l 1,3,-1
 144 576 l 1,0,-1
0 432 m 1,4,-1
 0 576 l 1,5,-1
 144 576 l 1,6,-1
 144 432 l 1,7,-1
 0 432 l 1,4,-1
287 432 m 1,8,-1
 287 576 l 1,9,-1
 432 576 l 1,10,-1
 432 432 l 1,11,-1
 287 432 l 1,8,-1
EndSplineSet
EndChar

StartChar: underscore
Encoding: 95 95 68
Width: 572
GlyphClass: 2
Flags: W
LayerCount: 2
Fore
SplineSet
0 0 m 1,0,-1
 0 144 l 1,1,-1
 432 144 l 1,2,-1
 432 0 l 1,3,-1
 0 0 l 1,0,-1
EndSplineSet
EndChar

StartChar: grave
Encoding: 96 96 69
Width: 428
GlyphClass: 2
Flags: W
LayerCount: 2
Fore
SplineSet
287 576 m 5,0,-1
 0 863 l 5,1,-1
 144 863 l 5,2,-1
 287 719 l 5,3,-1
 287 576 l 5,0,-1
EndSplineSet
EndChar

StartChar: a
Encoding: 97 97 70
Width: 860
GlyphClass: 2
Flags: W
LayerCount: 2
Fore
SplineSet
144 432 m 1,0,-1
 144 576 l 1,1,-1
 432 576 l 1,2,-1
 432 432 l 1,3,-1
 144 432 l 1,0,-1
0 144 m 1,4,-1
 0 432 l 1,5,-1
 144 432 l 1,6,-1
 144 144 l 1,7,-1
 0 144 l 1,4,-1
432 144 m 1,8,-1
 432 432 l 1,9,-1
 576 432 l 1,10,-1
 576 144 l 1,11,-1
 432 144 l 1,8,-1
144 0 m 1,12,-1
 144 144 l 1,13,-1
 432 144 l 1,14,-1
 432 0 l 1,15,-1
 144 0 l 1,12,-1
576 0 m 1,16,-1
 576 144 l 1,17,-1
 719 144 l 1,18,-1
 719 0 l 1,19,-1
 576 0 l 1,16,-1
EndSplineSet
EndChar

StartChar: b
Encoding: 98 98 71
Width: 717
GlyphClass: 2
Flags: W
LayerCount: 2
Fore
SplineSet
432 144 m 1,0,-1
 432 0 l 1,1,-1
 0 0 l 1,2,-1
 0 719 l 1,3,-1
 144 719 l 1,4,-1
 144 576 l 1,5,-1
 432 576 l 1,6,-1
 432 432 l 1,7,-1
 144 432 l 1,8,-1
 144 144 l 1,9,-1
 432 144 l 1,0,-1
432 144 m 1,10,-1
 432 432 l 1,11,-1
 576 432 l 1,12,-1
 576 144 l 1,13,-1
 432 144 l 1,10,-1
EndSplineSet
EndChar

StartChar: c
Encoding: 99 99 72
Width: 572
GlyphClass: 2
Flags: W
LayerCount: 2
Fore
SplineSet
144 432 m 1,0,-1
 144 576 l 1,1,-1
 432 576 l 1,2,-1
 432 432 l 1,3,-1
 144 432 l 1,0,-1
0 144 m 1,4,-1
 0 432 l 1,5,-1
 144 432 l 1,6,-1
 144 144 l 1,7,-1
 0 144 l 1,4,-1
144 0 m 1,8,-1
 144 144 l 1,9,-1
 432 144 l 1,10,-1
 432 0 l 1,11,-1
 144 0 l 1,8,-1
EndSplineSet
EndChar

StartChar: d
Encoding: 100 100 73
Width: 717
GlyphClass: 2
Flags: W
LayerCount: 2
Fore
SplineSet
0 144 m 1,0,-1
 0 432 l 1,1,-1
 144 432 l 1,2,-1
 144 144 l 1,3,-1
 432 144 l 1,4,-1
 432 432 l 1,5,-1
 144 432 l 1,6,-1
 144 576 l 1,7,-1
 432 576 l 1,8,-1
 432 719 l 1,9,-1
 576 719 l 1,10,-1
 576 0 l 1,11,-1
 144 0 l 1,12,-1
 144 144 l 1,13,-1
 0 144 l 1,0,-1
EndSplineSet
EndChar

StartChar: e
Encoding: 101 101 74
Width: 717
GlyphClass: 2
Flags: W
LayerCount: 2
Fore
SplineSet
144 432 m 1,0,-1
 144 576 l 1,1,-1
 432 576 l 1,2,-1
 432 432 l 1,3,-1
 144 432 l 1,0,-1
144 0 m 1,4,-1
 144 144 l 1,5,-1
 0 144 l 1,6,-1
 0 432 l 1,7,-1
 144 432 l 1,8,-1
 144 287 l 1,9,-1
 432 287 l 1,10,-1
 432 144 l 1,11,-1
 576 144 l 1,12,-1
 576 0 l 1,13,-1
 144 0 l 1,4,-1
432 287 m 1,14,-1
 432 432 l 1,15,-1
 576 432 l 1,16,-1
 576 287 l 1,17,-1
 432 287 l 1,14,-1
EndSplineSet
EndChar

StartChar: f
Encoding: 102 102 75
Width: 572
GlyphClass: 2
Flags: W
LayerCount: 2
Fore
SplineSet
287 576 m 1,0,-1
 287 719 l 1,1,-1
 432 719 l 1,2,-1
 432 576 l 1,3,-1
 287 576 l 1,0,-1
144 0 m 1,4,-1
 144 287 l 1,5,-1
 0 287 l 1,6,-1
 0 432 l 1,7,-1
 144 432 l 1,8,-1
 144 576 l 1,9,-1
 287 576 l 1,10,-1
 287 432 l 1,11,-1
 432 432 l 1,12,-1
 432 287 l 1,13,-1
 287 287 l 1,14,-1
 287 0 l 1,15,-1
 144 0 l 1,4,-1
EndSplineSet
EndChar

StartChar: g
Encoding: 103 103 76
Width: 717
GlyphClass: 2
Flags: W
LayerCount: 2
Fore
SplineSet
144 432 m 1,0,-1
 144 576 l 1,1,-1
 432 576 l 1,2,-1
 432 432 l 1,3,-1
 144 432 l 1,0,-1
0 144 m 1,4,-1
 0 432 l 1,5,-1
 144 432 l 1,6,-1
 144 144 l 1,7,-1
 432 144 l 1,8,-1
 432 432 l 1,9,-1
 576 432 l 1,10,-1
 576 -287 l 1,11,-1
 432 -287 l 1,12,-1
 432 0 l 1,13,-1
 144 0 l 1,14,-1
 144 144 l 1,15,-1
 0 144 l 1,4,-1
0 -287 m 1,16,-1
 0 -144 l 1,17,-1
 144 -144 l 1,18,-1
 144 -287 l 1,19,-1
 0 -287 l 1,16,-1
144 -432 m 1,20,-1
 144 -287 l 1,21,-1
 432 -287 l 1,22,-1
 432 -432 l 1,23,-1
 144 -432 l 1,20,-1
EndSplineSet
EndChar

StartChar: h
Encoding: 104 104 77
Width: 717
GlyphClass: 2
Flags: W
LayerCount: 2
Fore
SplineSet
0 0 m 1,0,-1
 0 719 l 1,1,-1
 144 719 l 1,2,-1
 144 576 l 1,3,-1
 432 576 l 1,4,-1
 432 432 l 1,5,-1
 144 432 l 1,6,-1
 144 0 l 1,7,-1
 0 0 l 1,0,-1
432 0 m 1,8,-1
 432 432 l 1,9,-1
 576 432 l 1,10,-1
 576 0 l 1,11,-1
 432 0 l 1,8,-1
EndSplineSet
EndChar

StartChar: i
Encoding: 105 105 78
Width: 285
GlyphClass: 2
Flags: W
LayerCount: 2
Fore
SplineSet
0 576 m 5,0,-1
 0 719 l 5,1,-1
 144 719 l 5,2,-1
 144 576 l 5,3,-1
 0 576 l 5,0,-1
0 0 m 1,4,-1
 0 432 l 1,5,-1
 144 432 l 1,6,-1
 144 0 l 1,7,-1
 0 0 l 1,4,-1
EndSplineSet
EndChar

StartChar: j
Encoding: 106 106 79
Width: 285
GlyphClass: 2
Flags: W
LayerCount: 2
Fore
SplineSet
0 576 m 1,0,-1
 0 719 l 1,1,-1
 144 719 l 1,2,-1
 144 576 l 1,3,-1
 0 576 l 1,0,-1
0 -144 m 1,4,-1
 0 432 l 1,5,-1
 144 432 l 1,6,-1
 144 -144 l 1,7,-1
 0 -144 l 1,4,-1
-144 -287 m 1,8,-1
 -144 -144 l 1,9,-1
 0 -144 l 1,10,-1
 0 -287 l 1,11,-1
 -144 -287 l 1,8,-1
EndSplineSet
EndChar

StartChar: k
Encoding: 107 107 80
Width: 572
GlyphClass: 2
Flags: W
LayerCount: 2
Fore
SplineSet
0 0 m 1,0,-1
 0 719 l 1,1,-1
 144 719 l 1,2,-1
 144 432 l 1,3,-1
 287 432 l 1,4,-1
 287 287 l 1,5,-1
 144 287 l 1,6,-1
 144 0 l 1,7,-1
 0 0 l 1,0,-1
287 432 m 1,8,-1
 287 719 l 1,9,-1
 432 719 l 1,10,-1
 432 432 l 1,11,-1
 287 432 l 1,8,-1
287 0 m 1,12,-1
 287 287 l 1,13,-1
 432 287 l 1,14,-1
 432 0 l 1,15,-1
 287 0 l 1,12,-1
EndSplineSet
EndChar

StartChar: l
Encoding: 108 108 81
Width: 428
GlyphClass: 2
Flags: W
LayerCount: 2
Fore
SplineSet
0 144 m 1,0,-1
 0 719 l 1,1,-1
 144 719 l 1,2,-1
 144 144 l 1,3,-1
 0 144 l 1,0,-1
144 0 m 1,4,-1
 144 144 l 1,5,-1
 287 144 l 1,6,-1
 287 0 l 1,7,-1
 144 0 l 1,4,-1
EndSplineSet
EndChar

StartChar: m
Encoding: 109 109 82
Width: 860
GlyphClass: 2
Flags: W
LayerCount: 2
Fore
SplineSet
0 0 m 1,0,-1
 0 576 l 1,1,-1
 287 576 l 1,2,-1
 287 432 l 1,3,-1
 144 432 l 1,4,-1
 144 0 l 1,5,-1
 0 0 l 1,0,-1
576 0 m 1,6,-1
 576 432 l 1,7,-1
 432 432 l 1,8,-1
 432 576 l 1,9,-1
 719 576 l 1,10,-1
 719 0 l 1,11,-1
 576 0 l 1,6,-1
287 144 m 1,12,-1
 287 432 l 1,13,-1
 432 432 l 1,14,-1
 432 144 l 1,15,-1
 287 144 l 1,12,-1
EndSplineSet
EndChar

StartChar: n
Encoding: 110 110 83
Width: 717
GlyphClass: 2
Flags: W
LayerCount: 2
Fore
SplineSet
0 0 m 1,0,-1
 0 576 l 1,1,-1
 432 576 l 1,2,-1
 432 432 l 1,3,-1
 144 432 l 1,4,-1
 144 0 l 1,5,-1
 0 0 l 1,0,-1
432 0 m 1,6,-1
 432 432 l 1,7,-1
 576 432 l 1,8,-1
 576 0 l 1,9,-1
 432 0 l 1,6,-1
EndSplineSet
EndChar

StartChar: o
Encoding: 111 111 84
Width: 717
GlyphClass: 2
Flags: W
LayerCount: 2
Fore
SplineSet
144 432 m 1,0,-1
 144 576 l 1,1,-1
 432 576 l 1,2,-1
 432 432 l 1,3,-1
 144 432 l 1,0,-1
0 144 m 1,4,-1
 0 432 l 1,5,-1
 144 432 l 1,6,-1
 144 144 l 1,7,-1
 0 144 l 1,4,-1
432 144 m 1,8,-1
 432 432 l 1,9,-1
 576 432 l 1,10,-1
 576 144 l 1,11,-1
 432 144 l 1,8,-1
144 0 m 1,12,-1
 144 144 l 1,13,-1
 432 144 l 1,14,-1
 432 0 l 1,15,-1
 144 0 l 1,12,-1
EndSplineSet
EndChar

StartChar: p
Encoding: 112 112 85
Width: 717
GlyphClass: 2
Flags: W
LayerCount: 2
Fore
SplineSet
432 144 m 1,0,-1
 432 0 l 1,1,-1
 144 0 l 1,2,-1
 144 -432 l 1,3,-1
 0 -432 l 1,4,-1
 0 576 l 1,5,-1
 432 576 l 1,6,-1
 432 432 l 1,7,-1
 144 432 l 1,8,-1
 144 144 l 1,9,-1
 432 144 l 1,0,-1
432 144 m 1,10,-1
 432 432 l 1,11,-1
 576 432 l 1,12,-1
 576 144 l 1,13,-1
 432 144 l 1,10,-1
EndSplineSet
EndChar

StartChar: q
Encoding: 113 113 86
Width: 860
GlyphClass: 2
Flags: W
LayerCount: 2
Fore
SplineSet
144 432 m 1,0,-1
 144 576 l 1,1,-1
 432 576 l 1,2,-1
 432 432 l 1,3,-1
 144 432 l 1,0,-1
0 144 m 1,4,-1
 0 432 l 1,5,-1
 144 432 l 1,6,-1
 144 144 l 1,7,-1
 432 144 l 1,8,-1
 432 432 l 1,9,-1
 576 432 l 1,10,-1
 576 -144 l 1,11,-1
 719 -144 l 1,12,-1
 719 -287 l 1,13,-1
 576 -287 l 1,14,-1
 576 -432 l 1,15,-1
 432 -432 l 1,16,-1
 432 0 l 1,17,-1
 144 0 l 1,18,-1
 144 144 l 1,19,-1
 0 144 l 1,4,-1
EndSplineSet
EndChar

StartChar: r
Encoding: 114 114 87
Width: 717
GlyphClass: 2
Flags: W
LayerCount: 2
Fore
SplineSet
0 0 m 1,0,-1
 0 576 l 1,1,-1
 144 576 l 1,2,-1
 144 432 l 1,3,-1
 287 432 l 1,4,-1
 287 287 l 1,5,-1
 144 287 l 1,6,-1
 144 0 l 1,7,-1
 0 0 l 1,0,-1
287 432 m 1,8,-1
 287 576 l 1,9,-1
 576 576 l 1,10,-1
 576 432 l 1,11,-1
 287 432 l 1,8,-1
EndSplineSet
EndChar

StartChar: s
Encoding: 115 115 88
Width: 572
GlyphClass: 2
Flags: W
LayerCount: 2
Fore
SplineSet
0 287 m 1,0,-1
 0 432 l 1,1,-1
 144 432 l 1,2,-1
 144 576 l 1,3,-1
 432 576 l 1,4,-1
 432 432 l 1,5,-1
 287 432 l 1,6,-1
 287 287 l 1,7,-1
 0 287 l 1,0,-1
287 144 m 1,8,-1
 287 287 l 1,9,-1
 432 287 l 1,10,-1
 432 144 l 1,11,-1
 287 144 l 1,8,-1
0 0 m 1,12,-1
 0 144 l 1,13,-1
 287 144 l 1,14,-1
 287 0 l 1,15,-1
 0 0 l 1,12,-1
EndSplineSet
EndChar

StartChar: t
Encoding: 116 116 89
Width: 572
GlyphClass: 2
Flags: W
LayerCount: 2
Fore
SplineSet
144 144 m 1,0,-1
 144 432 l 1,1,-1
 0 432 l 1,2,-1
 0 576 l 1,3,-1
 144 576 l 1,4,-1
 144 719 l 1,5,-1
 287 719 l 1,6,-1
 287 576 l 1,7,-1
 432 576 l 1,8,-1
 432 432 l 1,9,-1
 287 432 l 1,10,-1
 287 144 l 1,11,-1
 144 144 l 1,0,-1
287 0 m 1,12,-1
 287 144 l 1,13,-1
 432 144 l 1,14,-1
 432 0 l 1,15,-1
 287 0 l 1,12,-1
EndSplineSet
EndChar

StartChar: u
Encoding: 117 117 90
Width: 860
GlyphClass: 2
Flags: W
LayerCount: 2
Fore
SplineSet
0 144 m 1,0,-1
 0 576 l 1,1,-1
 144 576 l 1,2,-1
 144 144 l 1,3,-1
 0 144 l 1,0,-1
432 144 m 1,4,-1
 432 576 l 1,5,-1
 576 576 l 1,6,-1
 576 144 l 1,7,-1
 432 144 l 1,4,-1
144 0 m 1,8,-1
 144 144 l 1,9,-1
 432 144 l 1,10,-1
 432 0 l 1,11,-1
 144 0 l 1,8,-1
576 0 m 1,12,-1
 576 144 l 1,13,-1
 719 144 l 1,14,-1
 719 0 l 1,15,-1
 576 0 l 1,12,-1
EndSplineSet
EndChar

StartChar: v
Encoding: 118 118 91
Width: 572
GlyphClass: 2
Flags: W
LayerCount: 2
Fore
SplineSet
0 144 m 1,0,-1
 0 576 l 1,1,-1
 144 576 l 1,2,-1
 144 144 l 1,3,-1
 0 144 l 1,0,-1
287 144 m 1,4,-1
 287 576 l 1,5,-1
 432 576 l 1,6,-1
 432 144 l 1,7,-1
 287 144 l 1,4,-1
144 0 m 1,8,-1
 144 144 l 1,9,-1
 287 144 l 1,10,-1
 287 0 l 1,11,-1
 144 0 l 1,8,-1
EndSplineSet
EndChar

StartChar: w
Encoding: 119 119 92
Width: 860
GlyphClass: 2
Flags: W
LayerCount: 2
Fore
SplineSet
0 144 m 1,0,-1
 0 576 l 1,1,-1
 144 576 l 1,2,-1
 144 144 l 1,3,-1
 0 144 l 1,0,-1
576 144 m 1,4,-1
 576 576 l 1,5,-1
 719 576 l 1,6,-1
 719 144 l 1,7,-1
 576 144 l 1,4,-1
287 144 m 1,8,-1
 287 432 l 1,9,-1
 432 432 l 1,10,-1
 432 144 l 1,11,-1
 287 144 l 1,8,-1
144 0 m 1,12,-1
 144 144 l 1,13,-1
 287 144 l 1,14,-1
 287 0 l 1,15,-1
 144 0 l 1,12,-1
432 0 m 1,16,-1
 432 144 l 1,17,-1
 576 144 l 1,18,-1
 576 0 l 1,19,-1
 432 0 l 1,16,-1
EndSplineSet
EndChar

StartChar: x
Encoding: 120 120 93
Width: 572
GlyphClass: 2
Flags: W
LayerCount: 2
Fore
SplineSet
0 432 m 1,0,-1
 0 576 l 1,1,-1
 144 576 l 1,2,-1
 144 432 l 1,3,-1
 0 432 l 1,0,-1
287 432 m 1,4,-1
 287 576 l 1,5,-1
 432 576 l 1,6,-1
 432 432 l 1,7,-1
 287 432 l 1,4,-1
144 287 m 1,8,-1
 144 432 l 1,9,-1
 287 432 l 1,10,-1
 287 287 l 1,11,-1
 144 287 l 1,8,-1
0 0 m 1,12,-1
 0 287 l 1,13,-1
 144 287 l 1,14,-1
 144 0 l 1,15,-1
 0 0 l 1,12,-1
287 0 m 1,16,-1
 287 287 l 1,17,-1
 432 287 l 1,18,-1
 432 0 l 1,19,-1
 287 0 l 1,16,-1
EndSplineSet
EndChar

StartChar: y
Encoding: 121 121 94
Width: 717
GlyphClass: 2
Flags: W
LayerCount: 2
Fore
SplineSet
0 144 m 1,0,-1
 0 576 l 1,1,-1
 144 576 l 1,2,-1
 144 144 l 1,3,-1
 432 144 l 1,4,-1
 432 576 l 1,5,-1
 576 576 l 1,6,-1
 576 -287 l 1,7,-1
 432 -287 l 1,8,-1
 432 0 l 1,9,-1
 144 0 l 1,10,-1
 144 144 l 1,11,-1
 0 144 l 1,0,-1
0 -287 m 1,12,-1
 0 -144 l 1,13,-1
 144 -144 l 1,14,-1
 144 -287 l 1,15,-1
 0 -287 l 1,12,-1
144 -432 m 1,16,-1
 144 -287 l 1,17,-1
 432 -287 l 1,18,-1
 432 -432 l 1,19,-1
 144 -432 l 1,16,-1
EndSplineSet
EndChar

StartChar: z
Encoding: 122 122 95
Width: 717
GlyphClass: 2
Flags: W
LayerCount: 2
Fore
SplineSet
287 287 m 1,0,-1
 287 432 l 1,1,-1
 0 432 l 1,2,-1
 0 576 l 1,3,-1
 576 576 l 1,4,-1
 576 432 l 1,5,-1
 432 432 l 1,6,-1
 432 287 l 1,7,-1
 287 287 l 1,0,-1
0 0 m 1,8,-1
 0 144 l 1,9,-1
 144 144 l 1,10,-1
 144 287 l 1,11,-1
 287 287 l 1,12,-1
 287 144 l 1,13,-1
 576 144 l 1,14,-1
 576 0 l 1,15,-1
 0 0 l 1,8,-1
EndSplineSet
EndChar

StartChar: braceleft
Encoding: 123 123 96
Width: 572
GlyphClass: 2
Flags: W
LayerCount: 2
Fore
SplineSet
287 863 m 1,0,-1
 287 1006 l 1,1,-1
 432 1006 l 1,2,-1
 432 863 l 1,3,-1
 287 863 l 1,0,-1
144 576 m 1,4,-1
 144 863 l 1,5,-1
 287 863 l 1,6,-1
 287 576 l 1,7,-1
 144 576 l 1,4,-1
0 432 m 1,8,-1
 0 576 l 1,9,-1
 144 576 l 1,10,-1
 144 432 l 1,11,-1
 0 432 l 1,8,-1
144 144 m 1,12,-1
 144 432 l 1,13,-1
 287 432 l 1,14,-1
 287 144 l 1,15,-1
 144 144 l 1,12,-1
287 0 m 1,16,-1
 287 144 l 1,17,-1
 432 144 l 1,18,-1
 432 0 l 1,19,-1
 287 0 l 1,16,-1
EndSplineSet
EndChar

StartChar: bar
Encoding: 124 124 97
Width: 428
GlyphClass: 2
Flags: W
LayerCount: 2
Fore
SplineSet
144 0 m 1,0,-1
 144 1006 l 1,1,-1
 287 1006 l 1,2,-1
 287 0 l 1,3,-1
 144 0 l 1,0,-1
EndSplineSet
EndChar

StartChar: braceright
Encoding: 125 125 98
Width: 572
GlyphClass: 2
Flags: W
LayerCount: 2
Fore
SplineSet
0 863 m 1,0,-1
 0 1006 l 1,1,-1
 144 1006 l 1,2,-1
 144 863 l 1,3,-1
 0 863 l 1,0,-1
144 576 m 1,4,-1
 144 863 l 1,5,-1
 287 863 l 1,6,-1
 287 576 l 1,7,-1
 144 576 l 1,4,-1
287 432 m 1,8,-1
 287 576 l 1,9,-1
 432 576 l 1,10,-1
 432 432 l 1,11,-1
 287 432 l 1,8,-1
144 144 m 1,12,-1
 144 432 l 1,13,-1
 287 432 l 1,14,-1
 287 144 l 1,15,-1
 144 144 l 1,12,-1
0 0 m 1,16,-1
 0 144 l 1,17,-1
 144 144 l 1,18,-1
 144 0 l 1,19,-1
 0 0 l 1,16,-1
EndSplineSet
EndChar

StartChar: asciitilde
Encoding: 126 126 99
Width: 860
GlyphClass: 2
Flags: W
LayerCount: 2
Fore
SplineSet
144 576 m 1,0,-1
 144 719 l 1,1,-1
 287 719 l 1,2,-1
 287 576 l 1,3,-1
 144 576 l 1,0,-1
0 432 m 1,4,-1
 0 576 l 1,5,-1
 144 576 l 1,6,-1
 144 432 l 1,7,-1
 0 432 l 1,4,-1
287 432 m 1,8,-1
 287 576 l 1,9,-1
 432 576 l 1,10,-1
 432 432 l 1,11,-1
 287 432 l 1,8,-1
576 432 m 1,12,-1
 576 576 l 1,13,-1
 719 576 l 1,14,-1
 719 432 l 1,15,-1
 576 432 l 1,12,-1
432 287 m 1,16,-1
 432 432 l 1,17,-1
 576 432 l 1,18,-1
 576 287 l 1,19,-1
 432 287 l 1,16,-1
EndSplineSet
EndChar

StartChar: sterling
Encoding: 163 163 100
Width: 717
GlyphClass: 2
Flags: W
LayerCount: 2
Fore
SplineSet
287 576 m 1,0,-1
 287 719 l 1,1,-1
 576 719 l 1,2,-1
 576 576 l 1,3,-1
 287 576 l 1,0,-1
0 0 m 1,4,-1
 0 144 l 1,5,-1
 144 144 l 1,6,-1
 144 287 l 1,7,-1
 0 287 l 1,8,-1
 0 432 l 1,9,-1
 144 432 l 1,10,-1
 144 576 l 1,11,-1
 287 576 l 1,12,-1
 287 432 l 1,13,-1
 432 432 l 1,14,-1
 432 287 l 1,15,-1
 287 287 l 1,16,-1
 287 144 l 1,17,-1
 576 144 l 1,18,-1
 576 0 l 1,19,-1
 0 0 l 1,4,-1
EndSplineSet
EndChar

StartChar: multiply
Encoding: 215 215 101
Width: 860
GlyphClass: 2
Flags: W
LayerCount: 2
Fore
SplineSet
0 576 m 1,0,-1
 0 719 l 1,1,-1
 144 719 l 1,2,-1
 144 576 l 1,3,-1
 0 576 l 1,0,-1
576 576 m 1,4,-1
 576 719 l 1,5,-1
 719 719 l 1,6,-1
 719 576 l 1,7,-1
 576 576 l 1,4,-1
144 432 m 1,8,-1
 144 576 l 1,9,-1
 287 576 l 1,10,-1
 287 432 l 1,11,-1
 144 432 l 1,8,-1
432 432 m 1,12,-1
 432 576 l 1,13,-1
 576 576 l 1,14,-1
 576 432 l 1,15,-1
 432 432 l 1,12,-1
287 287 m 1,16,-1
 287 432 l 1,17,-1
 432 432 l 1,18,-1
 432 287 l 1,19,-1
 287 287 l 1,16,-1
144 144 m 1,20,-1
 144 287 l 1,21,-1
 287 287 l 1,22,-1
 287 144 l 1,23,-1
 144 144 l 1,20,-1
432 144 m 1,24,-1
 432 287 l 1,25,-1
 576 287 l 1,26,-1
 576 144 l 1,27,-1
 432 144 l 1,24,-1
0 0 m 1,28,-1
 0 144 l 1,29,-1
 144 144 l 1,30,-1
 144 0 l 1,31,-1
 0 0 l 1,28,-1
576 0 m 1,32,-1
 576 144 l 1,33,-1
 719 144 l 1,34,-1
 719 0 l 1,35,-1
 576 0 l 1,32,-1
EndSplineSet
EndChar

StartChar: divide
Encoding: 247 247 102
Width: 860
GlyphClass: 2
Flags: W
LayerCount: 2
Fore
SplineSet
287 576 m 1,0,-1
 287 719 l 1,1,-1
 432 719 l 1,2,-1
 432 576 l 1,3,-1
 287 576 l 1,0,-1
0 287 m 1,4,-1
 0 432 l 1,5,-1
 719 432 l 1,6,-1
 719 287 l 1,7,-1
 0 287 l 1,4,-1
287 0 m 1,8,-1
 287 144 l 1,9,-1
 432 144 l 1,10,-1
 432 0 l 1,11,-1
 287 0 l 1,8,-1
EndSplineSet
EndChar

StartChar: quoteleft
Encoding: 8216 8216 103
Width: 285
GlyphClass: 2
Flags: W
LayerCount: 2
Fore
SplineSet
0 576 m 1,0,-1
 0 719 l 1,1,-1
 144 863 l 1,2,-1
 144 576 l 1,3,-1
 0 576 l 1,0,-1
EndSplineSet
EndChar

StartChar: quoteright
Encoding: 8217 8217 104
Width: 285
GlyphClass: 2
Flags: W
LayerCount: 2
Fore
SplineSet
0 576 m 1,0,-1
 0 863 l 1,1,-1
 144 863 l 1,2,-1
 144 719 l 1,3,-1
 0 576 l 1,0,-1
EndSplineSet
EndChar

StartChar: quotedblleft
Encoding: 8220 8220 105
Width: 572
GlyphClass: 2
Flags: W
LayerCount: 2
Fore
SplineSet
144 576 m 1,0,-1
 0 719 l 1,1,-1
 0 863 l 1,2,-1
 144 863 l 1,3,-1
 144 576 l 1,0,-1
432 576 m 1,4,-1
 287 719 l 1,5,-1
 287 863 l 1,6,-1
 432 863 l 1,7,-1
 432 576 l 1,4,-1
EndSplineSet
EndChar

StartChar: quotedblright
Encoding: 8221 8221 106
Width: 572
GlyphClass: 2
Flags: W
LayerCount: 2
Fore
SplineSet
0 576 m 1,0,-1
 0 863 l 1,1,-1
 144 863 l 1,2,-1
 144 719 l 1,3,-1
 0 576 l 1,0,-1
287 576 m 1,4,-1
 287 863 l 1,5,-1
 432 863 l 1,6,-1
 432 719 l 1,7,-1
 287 576 l 1,4,-1
EndSplineSet
EndChar

StartChar: Aacute
Encoding: 193 193 108
Width: 717
Flags: W
LayerCount: 2
Fore
SplineSet
361 725 m 5,0,-1
 445 819 l 5,1,-1
 301 819 l 5,2,-1
 208 725 l 5,3,-1
 361 725 l 5,0,-1
144 538 m 1,4,-1
 144 681 l 1,5,-1
 432 681 l 1,6,-1
 432 538 l 1,7,-1
 144 538 l 1,4,-1
0 0 m 1,8,-1
 0 538 l 1,9,-1
 144 538 l 1,10,-1
 144 287 l 1,11,-1
 432 287 l 1,12,-1
 432 538 l 1,13,-1
 576 538 l 1,14,-1
 576 0 l 1,15,-1
 432 0 l 1,16,-1
 432 144 l 1,17,-1
 144 144 l 1,18,-1
 144 0 l 1,19,-1
 0 0 l 1,8,-1
EndSplineSet
EndChar

StartChar: Eacute
Encoding: 201 201 109
Width: 572
Flags: W
LayerCount: 2
Fore
SplineSet
285 725 m 5,0,-1
 369 819 l 5,1,-1
 225 819 l 5,2,-1
 132 725 l 5,3,-1
 285 725 l 5,0,-1
0 0 m 1,4,-1
 0 700 l 1,5,-1
 432 700 l 1,6,-1
 432 557 l 1,7,-1
 144 557 l 1,8,-1
 144 413 l 1,9,-1
 287 413 l 1,10,-1
 287 268 l 1,11,-1
 144 268 l 1,12,-1
 144 144 l 1,13,-1
 432 144 l 1,14,-1
 432 0 l 1,15,-1
 0 0 l 1,4,-1
EndSplineSet
EndChar

StartChar: Iacute
Encoding: 205 205 110
Width: 572
Flags: W
LayerCount: 2
Fore
SplineSet
290 725 m 1,0,-1
 374 819 l 1,1,-1
 230 819 l 1,2,-1
 137 725 l 1,3,-1
 290 725 l 1,0,-1
0 0 m 1,4,-1
 0 144 l 1,5,-1
 144 144 l 1,6,-1
 144 551 l 1,7,-1
 0 551 l 1,8,-1
 0 694 l 1,9,-1
 432 694 l 1,10,-1
 432 551 l 1,11,-1
 287 551 l 1,12,-1
 287 144 l 1,13,-1
 432 144 l 1,14,-1
 432 0 l 1,15,-1
 0 0 l 1,4,-1
EndSplineSet
EndChar

StartChar: Oacute
Encoding: 211 211 111
Width: 717
Flags: W
LayerCount: 2
Fore
SplineSet
360 725 m 1,0,-1
 444 819 l 1,1,-1
 300 819 l 1,2,-1
 207 725 l 1,3,-1
 360 725 l 1,0,-1
144 545 m 1,4,-1
 144 688 l 1,5,-1
 432 688 l 1,6,-1
 432 545 l 1,7,-1
 144 545 l 1,4,-1
0 144 m 1,8,-1
 0 545 l 1,9,-1
 144 545 l 1,10,-1
 144 144 l 1,11,-1
 0 144 l 1,8,-1
432 144 m 1,12,-1
 432 545 l 1,13,-1
 576 545 l 1,14,-1
 576 144 l 1,15,-1
 432 144 l 1,12,-1
144 0 m 1,16,-1
 144 144 l 1,17,-1
 432 144 l 1,18,-1
 432 0 l 1,19,-1
 144 0 l 1,16,-1
EndSplineSet
EndChar

StartChar: Uacute
Encoding: 218 218 112
Width: 717
Flags: W
LayerCount: 2
Fore
SplineSet
358 725 m 1,0,-1
 442 819 l 1,1,-1
 298 819 l 1,2,-1
 205 725 l 1,3,-1
 358 725 l 1,0,-1
0 144 m 1,4,-1
 0 668 l 1,5,-1
 144 668 l 1,6,-1
 144 144 l 1,7,-1
 0 144 l 1,4,-1
432 144 m 1,8,-1
 432 668 l 1,9,-1
 576 668 l 1,10,-1
 576 144 l 1,11,-1
 432 144 l 1,8,-1
144 0 m 1,12,-1
 144 144 l 1,13,-1
 432 144 l 1,14,-1
 432 0 l 1,15,-1
 144 0 l 1,12,-1
EndSplineSet
EndChar

StartChar: aacute
Encoding: 225 225 113
Width: 860
Flags: W
LayerCount: 2
Fore
SplineSet
370 676 m 5,0,-1
 511 819 l 5,1,-1
 368 819 l 5,2,-1
 226 676 l 5,3,-1
 370 676 l 5,0,-1
226 676 m 1029,4,-1
144 432 m 1,5,-1
 144 576 l 1,6,-1
 432 576 l 1,7,-1
 432 432 l 1,8,-1
 144 432 l 1,5,-1
0 144 m 1,9,-1
 0 432 l 1,10,-1
 144 432 l 1,11,-1
 144 144 l 1,12,-1
 0 144 l 1,9,-1
432 144 m 1,13,-1
 432 432 l 1,14,-1
 576 432 l 1,15,-1
 576 144 l 1,16,-1
 432 144 l 1,13,-1
144 0 m 1,17,-1
 144 144 l 1,18,-1
 432 144 l 1,19,-1
 432 0 l 1,20,-1
 144 0 l 1,17,-1
576 0 m 1,21,-1
 576 144 l 1,22,-1
 719 144 l 1,23,-1
 719 0 l 1,24,-1
 576 0 l 1,21,-1
EndSplineSet
EndChar

StartChar: eacute
Encoding: 233 233 114
Width: 717
Flags: W
LayerCount: 2
Fore
SplineSet
347 675 m 1,0,-1
 488 818 l 1,1,-1
 345 818 l 1,2,-1
 203 675 l 1,3,-1
 347 675 l 1,0,-1
203 675 m 1025,4,-1
144 432 m 1,5,-1
 144 576 l 1,6,-1
 432 576 l 1,7,-1
 432 432 l 1,8,-1
 144 432 l 1,5,-1
144 0 m 1,9,-1
 144 144 l 1,10,-1
 0 144 l 1,11,-1
 0 432 l 1,12,-1
 144 432 l 1,13,-1
 144 287 l 1,14,-1
 432 287 l 1,15,-1
 432 144 l 1,16,-1
 576 144 l 1,17,-1
 576 0 l 1,18,-1
 144 0 l 1,9,-1
432 287 m 1,19,-1
 432 432 l 1,20,-1
 576 432 l 1,21,-1
 576 287 l 1,22,-1
 432 287 l 1,19,-1
EndSplineSet
EndChar

StartChar: iacute
Encoding: 237 237 115
Width: 326
Flags: W
LayerCount: 2
Fore
SplineSet
185 675 m 1,0,-1
 326 818 l 1,1,-1
 183 818 l 1,2,-1
 41 675 l 1,3,-1
 185 675 l 1,0,-1
41 675 m 1025,4,-1
41 0 m 1,5,-1
 41 521 l 5,6,-1
 185 521 l 5,7,-1
 185 0 l 1,8,-1
 41 0 l 1,5,-1
EndSplineSet
EndChar

StartChar: oacute
Encoding: 243 243 116
Width: 717
Flags: W
LayerCount: 2
Fore
SplineSet
363 675 m 1,0,-1
 495 818 l 1,1,-1
 352 818 l 1,2,-1
 210 675 l 5,3,-1
 363 675 l 1,0,-1
210 675 m 1029,4,-1
144 432 m 1,5,-1
 144 576 l 1,6,-1
 432 576 l 1,7,-1
 432 432 l 1,8,-1
 144 432 l 1,5,-1
0 144 m 1,9,-1
 0 432 l 1,10,-1
 144 432 l 1,11,-1
 144 144 l 1,12,-1
 0 144 l 1,9,-1
432 144 m 1,13,-1
 432 432 l 1,14,-1
 576 432 l 1,15,-1
 576 144 l 1,16,-1
 432 144 l 1,13,-1
144 0 m 1,17,-1
 144 144 l 1,18,-1
 432 144 l 1,19,-1
 432 0 l 1,20,-1
 144 0 l 1,17,-1
EndSplineSet
EndChar

StartChar: uacute
Encoding: 250 250 117
Width: 860
Flags: W
LayerCount: 2
Fore
SplineSet
358 675 m 1,0,-1
 499 818 l 1,1,-1
 356 818 l 1,2,-1
 214 675 l 1,3,-1
 358 675 l 1,0,-1
214 675 m 1025,4,-1
0 144 m 1,5,-1
 0 576 l 1,6,-1
 144 576 l 1,7,-1
 144 144 l 1,8,-1
 0 144 l 1,5,-1
432 144 m 1,9,-1
 432 576 l 1,10,-1
 576 576 l 1,11,-1
 576 144 l 1,12,-1
 432 144 l 1,9,-1
144 0 m 1,13,-1
 144 144 l 1,14,-1
 432 144 l 1,15,-1
 432 0 l 1,16,-1
 144 0 l 1,13,-1
576 0 m 1,17,-1
 576 144 l 1,18,-1
 719 144 l 1,19,-1
 719 0 l 1,20,-1
 576 0 l 1,17,-1
EndSplineSet
EndChar

StartChar: udieresis
Encoding: 252 252 118
Width: 860
Flags: W
LayerCount: 2
Fore
SplineSet
316.799804688 673.0703125 m 5,0,-1
 316.799804688 782.822265625 l 5,1,-1
 446.400390625 782.822265625 l 5,2,-1
 446.400390625 673.0703125 l 5,3,-1
 316.799804688 673.0703125 l 5,0,-1
133.599609375 673.0703125 m 5,4,-1
 133.599609375 782.822265625 l 5,5,-1
 263.200195312 782.822265625 l 5,6,-1
 263.200195312 673.0703125 l 5,7,-1
 133.599609375 673.0703125 l 5,4,-1
0 144 m 1,8,-1
 0 576 l 1,9,-1
 144 576 l 1,10,-1
 144 144 l 1,11,-1
 0 144 l 1,8,-1
432 144 m 1,12,-1
 432 576 l 1,13,-1
 576 576 l 1,14,-1
 576 144 l 1,15,-1
 432 144 l 1,12,-1
144 0 m 1,16,-1
 144 144 l 1,17,-1
 432 144 l 1,18,-1
 432 0 l 1,19,-1
 144 0 l 1,16,-1
576 0 m 1,20,-1
 576 144 l 1,21,-1
 719 144 l 1,22,-1
 719 0 l 1,23,-1
 576 0 l 1,20,-1
EndSplineSet
EndChar

StartChar: ntilde
Encoding: 241 241 119
Width: 717
Flags: W
LayerCount: 2
Fore
SplineSet
144.247070312 749.2890625 m 5,0,-1
 144.247070312 818.029296875 l 5,1,-1
 252.731445312 818.029296875 l 5,2,-1
 252.731445312 749.2890625 l 5,3,-1
 144.247070312 749.2890625 l 5,0,-1
35.001953125 680.067382812 m 5,4,-1
 35.001953125 749.2890625 l 5,5,-1
 144.247070312 749.2890625 l 5,6,-1
 144.247070312 680.067382812 l 5,7,-1
 35.001953125 680.067382812 l 5,4,-1
252.731445312 680.067382812 m 5,8,-1
 252.731445312 749.2890625 l 5,9,-1
 362.736328125 749.2890625 l 5,10,-1
 362.736328125 680.067382812 l 5,11,-1
 252.731445312 680.067382812 l 5,8,-1
471.98046875 680.067382812 m 5,12,-1
 471.98046875 749.2890625 l 5,13,-1
 580.465820312 749.2890625 l 5,14,-1
 580.465820312 680.067382812 l 5,15,-1
 471.98046875 680.067382812 l 5,12,-1
362.736328125 610.366210938 m 5,16,-1
 362.736328125 680.067382812 l 5,17,-1
 471.98046875 680.067382812 l 5,18,-1
 471.98046875 610.366210938 l 5,19,-1
 362.736328125 610.366210938 l 5,16,-1
0 0 m 1,20,-1
 0 576 l 1,21,-1
 432 576 l 1,22,-1
 432 432 l 1,23,-1
 144 432 l 1,24,-1
 144 0 l 1,25,-1
 0 0 l 1,20,-1
432 0 m 1,26,-1
 432 432 l 1,27,-1
 576 432 l 1,28,-1
 576 0 l 1,29,-1
 432 0 l 1,26,-1
EndSplineSet
EndChar

StartChar: Ntilde
Encoding: 209 209 120
Width: 717
Flags: W
LayerCount: 2
Fore
SplineSet
140.874023438 768.625976562 m 5,0,-1
 140.874023438 818.876953125 l 5,1,-1
 247.463867188 818.876953125 l 5,2,-1
 247.463867188 768.625976562 l 5,3,-1
 140.874023438 768.625976562 l 5,0,-1
33.537109375 718.0234375 m 5,4,-1
 33.537109375 768.625976562 l 5,5,-1
 140.874023438 768.625976562 l 5,6,-1
 140.874023438 718.0234375 l 5,7,-1
 33.537109375 718.0234375 l 5,4,-1
247.463867188 718.0234375 m 5,8,-1
 247.463867188 768.625976562 l 5,9,-1
 355.547851562 768.625976562 l 5,10,-1
 355.547851562 718.0234375 l 5,11,-1
 247.463867188 718.0234375 l 5,8,-1
462.884765625 718.0234375 m 5,12,-1
 462.884765625 768.625976562 l 5,13,-1
 569.474609375 768.625976562 l 5,14,-1
 569.474609375 718.0234375 l 5,15,-1
 462.884765625 718.0234375 l 5,12,-1
355.547851562 667.0703125 m 5,16,-1
 355.547851562 718.0234375 l 5,17,-1
 462.884765625 718.0234375 l 5,18,-1
 462.884765625 667.0703125 l 5,19,-1
 355.547851562 667.0703125 l 5,16,-1
0 0 m 1,20,-1
 0 650 l 1,21,-1
 144 650 l 1,22,-1
 144 507 l 1,23,-1
 287 507 l 1,24,-1
 287 363 l 1,25,-1
 144 363 l 1,26,-1
 144 0 l 1,27,-1
 0 0 l 1,20,-1
432 0 m 1,28,-1
 432 218 l 1,29,-1
 287 218 l 1,30,-1
 287 363 l 1,31,-1
 432 363 l 1,32,-1
 432 650 l 1,33,-1
 576 650 l 1,34,-1
 576 0 l 1,35,-1
 432 0 l 1,28,-1
EndSplineSet
EndChar
